<?xml version="1.0" encoding="UTF-8" standalone="no"?>
<svg width="169px" height="50px" viewBox="0 0 169 50" version="1.1" xmlns="http://www.w3.org/2000/svg" xmlns:xlink="http://www.w3.org/1999/xlink" xmlns:sketch="http://www.bohemiancoding.com/sketch/ns">
    <!-- Generator: Sketch 3.4.4 (17249) - http://www.bohemiancoding.com/sketch -->
    <title>Logo </title>
    <desc>Created with Sketch.</desc>
    <defs>
        <path id="path-1" d="M0,50 L168.356039,50 L168.356039,0.636363636 L0,0.636363636 L0,50 Z"></path>
    </defs>
    <g id="Desktop-Flows" stroke="none" stroke-width="1" fill="none" fill-rule="evenodd" sketch:type="MSPage">
        <g id="UK-Regional-Homepage-Copy" sketch:type="MSArtboardGroup" transform="translate(-50.000000, -30.000000)">
            <g id="Interior-Page-Post-Selection" sketch:type="MSLayerGroup">
                <g id="Logo-" transform="translate(50.000000, 30.000000)">
                    <path d="M79.7857292,5.09090909 L80.14798,5.09090909 C80.3291053,5.18181818 80.419668,5.18181818 80.419668,5.36363636 C80.419668,5.54545455 80.419668,5.63636364 80.2385426,5.81818182 C74.4425305,14.0909091 68.7370811,22.4545455 62.7599436,30.8181818 L71.9973379,30.7272727 C76.0726589,30.7272727 77.3405366,30.0909091 78.2461635,29 C78.6084142,28.5454545 78.970665,27.5454545 79.0612277,27.0909091 C79.1517904,26.7272727 79.4234784,26.4545455 79.4234784,26.4545455 L79.6951665,26.4545455 C79.6951665,26.4545455 79.0612277,30.5454545 78.8801023,31.4545455 C78.6084142,32.3636364 78.6084142,32.4545455 77.7027873,32.4545455 L58.7751853,32.4545455 C58.3223719,32.4545455 58.1412465,32.1818182 58.1412465,32 C58.1412465,31.8181818 58.2318092,31.6363636 58.6846226,31 C63.0316317,24.8181818 67.9220169,18.8181818 72.4501514,12.8181818 C73.8085917,10.9090909 75.2575947,9 76.5254724,7.09090909 C76.6160351,6.90909091 76.7971605,6.81818182 76.8877231,6.63636364 L67.1069527,6.63636364 C65.9296377,6.63636364 65.0240109,6.72727273 64.2089467,6.81818182 C63.5750078,6.90909091 62.941069,7.09090909 62.4882556,7.36363636 C61.1298152,8 60.2241883,10.1818182 60.2241883,10.1818182 L59.7713749,10.8181818 C59.7713749,10.8181818 59.4996868,10.6363636 59.4996868,10.3636364 C59.4996868,9.90909091 60.043063,6.63636364 60.314751,5.54545455 C60.4053137,5.09090909 60.6770018,4.90909091 60.6770018,4.90909091 C60.6770018,4.90909091 60.9486898,5.09090909 62.0354421,5.09090909 L62.1260048,5.09090909 L69.0993319,5.09090909 L79.7857292,5.09090909 Z" id="Fill-1" fill="#222A3B" sketch:type="MSShapeGroup"></path>
                    <path d="M53.7942374,31.6363636 C53.0697359,31.3636364 52.0735463,30.8181818 50.715106,27.7272727 L41.0248982,4.27272727 C40.8437728,4 40.7532101,4.36363636 40.7532101,4.36363636 L31.6969412,28.2727273 C31.0630024,30.1818182 30.3385009,31.6363636 28.5272471,31.8181818 C28.255559,31.9090909 27.0782441,31.9090909 27.0782441,31.9090909 L27.0782441,32.0909091 C27.0782441,32.0909091 27.3499321,32.3636364 27.8027456,32.3636364 L32.059192,32.3636364 L34.957198,32.3636364 C35.3194488,32.3636364 35.5005742,32.0909091 35.5005742,32.0909091 L35.5005742,32 L34.7760727,31.9090909 C34.1421338,31.9090909 33.3270696,31.5454545 33.3270696,30.8181818 C33.3270696,30.0909091 33.508195,29.1818182 33.8704458,28.2727273 L36.3156384,21.2727273 L44.8285312,21.3636364 L48.4510387,30.9090909 C48.7227268,31.5454545 48.4510387,31.8181818 48.1793507,31.9090909 C48.088788,32 47.9076626,32 47.9076626,32.1818182 C47.9076626,32.4545455 48.2699134,32.4545455 48.9944149,32.4545455 L54.8809897,32.4545455 C55.3338031,32.4545455 55.6960539,32.1818182 55.6960539,32.1818182 L55.6054912,32 C55.6054912,31.9090909 54.4281762,31.8181818 53.7942374,31.6363636 L53.7942374,31.6363636 Z M36.6778891,19.9090909 L40.4815221,9 L44.3757177,19.9090909 L36.6778891,19.9090909 Z" id="Fill-3" fill="#222A3B" sketch:type="MSShapeGroup"></path>
                    <path d="M108.584664,31.6363636 C107.860163,31.3636364 106.773411,30.8181818 105.505533,27.7272727 L95.8153252,4.27272727 C95.7247625,4 95.5436371,4.36363636 95.5436371,4.36363636 L86.4873682,28.2727273 C85.8534294,30.1818182 85.0383652,31.6363636 83.3176741,31.8181818 C83.045986,31.9090909 81.8686711,31.9090909 81.8686711,31.9090909 L81.8686711,32.0909091 C81.8686711,32.0909091 82.1403591,32.3636364 82.5931726,32.3636364 L86.849619,32.3636364 L89.747625,32.3636364 C90.1098758,32.3636364 90.2910011,32.0909091 90.2910011,32.0909091 L90.2910011,32 L89.5664996,31.9090909 C88.9325608,31.9090909 88.1174966,31.5454545 88.1174966,30.8181818 C88.1174966,30.0909091 88.298622,29.1818182 88.6608727,28.2727273 L91.1060654,21.2727273 L99.6189581,21.3636364 L103.241466,30.9090909 C103.422591,31.5454545 103.241466,31.8181818 102.969778,31.9090909 C102.788652,32 102.69809,32 102.69809,32.1818182 C102.69809,32.4545455 103.06034,32.4545455 103.784842,32.4545455 L109.671417,32.4545455 C110.12423,32.4545455 110.395918,32.1818182 110.395918,32.1818182 L110.395918,32 C110.486481,31.9090909 109.218603,31.8181818 108.584664,31.6363636 L108.584664,31.6363636 Z M91.4683161,19.9090909 L95.2719491,9 L99.1661447,19.9090909 L91.4683161,19.9090909 Z" id="Fill-5" fill="#222A3B" sketch:type="MSShapeGroup"></path>
                    <path d="M0.815064203,32.3636364 C0.452813446,32.3636364 0.271688068,32 0.271688068,32 L0.271688068,31.8181818 C0.271688068,31.8181818 1.26787765,31.7272727 1.63012841,31.6363636 C2.35462992,31.4545455 2.80744337,30.6363636 2.98856874,29.5454545 C3.16969412,28 3.16969412,25.0909091 3.16969412,21.6363636 L3.16969412,15.1818182 C3.16969412,9.45454545 3.16969412,4.54545455 3.07913143,3.36363636 C2.98856874,2.18181818 2.71688068,1.54545455 1.53956572,1.27272727 C1.26787765,1.27272727 0.271688068,1.18181818 0.271688068,1.18181818 L0,1 L0.0905626892,0.636363636 C0.0905626892,0.636363636 4.79982253,0.818181818 4.98094791,0.818181818 C5.16207329,0.818181818 9.41851968,0.636363636 9.41851968,0.636363636 L9.41851968,1 L9.14683161,1.18181818 C9.14683161,1.18181818 8.33176741,1.27272727 7.96951665,1.27272727 C6.88276438,1.45454545 6.61107631,2.09090909 6.52051362,3.36363636 C6.42995093,4.54545455 6.42995093,9.45454545 6.42995093,15.1818182 L6.42995093,21.7272727 C6.42995093,27.0909091 6.61107631,29.0909091 7.24501514,29.8181818 C7.87895396,30.5454545 12.0448377,30.7272727 16.2107214,30.8181818 L17.5691617,30.8181818 C21.7350454,30.8181818 22.731235,30.0909091 23.4557365,29 C23.8179873,28.5454545 24.180238,27.6363636 24.2708007,27.0909091 C24.3613634,26.7272727 24.6330515,26.5454545 24.6330515,26.5454545 L25.0858649,26.5454545 C25.0858649,26.5454545 24.4519261,30.6363636 24.180238,31.5454545 C23.9991126,32.3636364 23.90855,32.4545455 23.0029231,32.4545455 L0.815064203,32.4545455 L0.815064203,32.3636364 Z" id="Fill-7" fill="#222A3B" sketch:type="MSShapeGroup"></path>
                    <path d="M139.104291,31.7272727 C138.198664,31.6363636 136.659098,31.1818182 134.666719,29.0909091 C132.583777,26.8181818 130.138584,23.6363636 127.150016,19.8181818 C130.410272,16.8181818 131.587587,14.0909091 131.587587,11.4545455 C131.587587,9 129.957459,7.18181818 129.051832,6.54545455 C127.150016,5.18181818 123.527508,5 121.263441,5 C120.176689,5 117.369245,5.09090909 117.006994,5.09090909 C116.825869,5.09090909 112.388297,5 112.388297,5 L112.388297,5.27272727 C112.388297,5.27272727 112.47886,5.54545455 112.659985,5.54545455 C112.931673,5.54545455 113.565612,5.63636364 113.8373,5.63636364 C115.014615,5.90909091 115.286303,6.45454545 115.376866,7.72727273 C115.467429,8.90909091 115.467429,9.90909091 115.467429,15.5454545 L115.467429,21.9090909 C115.467429,25.4545455 115.467429,28.2727273 115.286303,29.8181818 C115.105178,30.8181818 114.924053,31.6363636 114.199551,31.8181818 C113.927863,31.9090909 112.841111,31.9090909 112.841111,31.9090909 L112.841111,32.1818182 C112.841111,32.1818182 113.022236,32.4545455 113.384487,32.4545455 L116.735306,32.4545455 L121.172878,32.4545455 C121.535129,32.4545455 121.716254,32.1818182 121.716254,32.1818182 L121.625692,31.9090909 C121.625692,31.9090909 120.267251,31.8181818 119.814438,31.8181818 C118.727686,31.6363636 118.455997,30.8181818 118.365435,29.8181818 C118.274872,28.2727273 118.274872,25.4545455 118.274872,21.9090909 L118.274872,21.0909091 C118.274872,20.9090909 118.365435,20.8181818 118.54656,20.8181818 L124.161447,20.9090909 C124.433135,20.9090909 124.433135,21 124.61426,21.1818182 C125.338762,22.0909091 127.059453,24.5454545 128.508456,26.5454545 C130.591398,29.2727273 131.859275,31 133.308279,31.9090909 C134.304468,32.3636364 135.210095,32.5454545 137.202474,32.5454545 L139.828792,32.5454545 C140.462731,32.5454545 140.643856,32.2727273 140.643856,32.2727273 L140.462731,32 C140.643856,31.9090909 139.828792,31.9090909 139.104291,31.7272727 M126.334951,19 C125.519887,19.6363636 123.346383,19.7272727 122.440756,19.7272727 C120.90119,19.7272727 119.271062,19.4545455 118.727686,19.0909091 C118.54656,19 118.455997,18.8181818 118.455997,18.6363636 L118.455997,6.81818182 C118.455997,6.63636364 118.54656,6.45454545 118.727686,6.36363636 C119.089936,6.27272727 120.086126,6.18181818 121.172878,6.18181818 C125.067074,6.18181818 128.599019,8.90909091 128.599019,13.3636364 C128.508456,16.1818182 127.602829,18.0909091 126.334951,19" id="Fill-9" fill="#222A3B" sketch:type="MSShapeGroup"></path>
                    <g id="Group-13">
                        <mask id="mask-2" sketch:name="Clip 12" fill="white">
                            <use xlink:href="#path-1"></use>
                        </mask>
                        <g id="Clip-12"></g>
                        <path d="M154.137697,32.3636364 C158.575269,32.3636364 161.744963,31.3636364 164.914657,28.0909091 C165.276908,27.7272727 165.639159,27.2727273 165.910847,26.7272727 C165.910847,26.7272727 166.907036,25.1818182 167.269287,24.2727273 C170.620106,15.8181818 166.091972,9.90909091 165.095782,8.90909091 C161.563838,5.54545455 157.760205,5.18181818 154.137697,5 C153.956572,5 143.270174,4.90909091 143.270174,4.90909091 L143.270174,5.27272727 C143.270174,5.27272727 143.360737,5.45454545 143.541862,5.45454545 C143.632425,5.45454545 143.81355,5.45454545 143.994676,5.54545455 L144.085239,5.54545455 C144.538052,5.54545455 144.900303,5.54545455 145.081428,5.63636364 C145.171991,5.72727273 145.353116,5.72727273 145.353116,5.72727273 L145.443679,5.72727273 C145.534242,5.81818182 145.624804,5.81818182 145.715367,5.81818182 C145.80593,5.90909091 145.896492,5.90909091 145.987055,6 C146.077618,6.09090909 146.077618,6.09090909 146.16818,6.18181818 L146.258743,6.27272727 L146.258743,6.36363636 C146.530431,6.63636364 146.530431,7.09090909 146.530431,7.63636364 C146.620994,8.81818182 146.620994,9.81818182 146.620994,15.4545455 L146.620994,17.3636364 L146.620994,19.8181818 L146.620994,21.7272727 C146.620994,27.2727273 146.620994,28.3636364 146.530431,29.4545455 C146.530431,30.0909091 146.439868,30.4545455 146.258743,30.8181818 L146.258743,30.9090909 C146.258743,31 146.16818,31 146.16818,31 C146.077618,31.0909091 146.077618,31.0909091 145.987055,31.1818182 C145.896492,31.2727273 145.896492,31.2727273 145.715367,31.3636364 C145.624804,31.4545455 145.534242,31.4545455 145.443679,31.5454545 L145.353116,31.5454545 C145.262554,31.6363636 145.171991,31.6363636 145.081428,31.6363636 C144.900303,31.7272727 144.447489,31.7272727 144.085239,31.7272727 L143.994676,31.7272727 L143.541862,31.7272727 C143.4513,31.7272727 143.360737,32 143.360737,32 L143.360737,32.2727273 L154.137697,32.2727273 L154.137697,32.3636364 Z M154.952761,31.0909091 C153.322633,31.1818182 151.058566,31 150.515189,31 L149.700125,30.7272727 C149.609563,30.5454545 149.519,30.4545455 149.519,30.0909091 C149.428437,28.9090909 149.428437,25.1818182 149.428437,22.4545455 L149.428437,20 L149.428437,19.4545455 L149.428437,17.9090909 L149.428437,17.4545455 L149.428437,14.9090909 C149.428437,12.1818182 149.428437,8.45454545 149.519,7.27272727 C149.519,7 149.609563,6.81818182 149.700125,6.63636364 L150.515189,6.36363636 C150.968003,6.27272727 152.145318,6.27272727 152.235881,6.27272727 C153.141507,6.18181818 153.775446,6.18181818 154.862199,6.36363636 C156.220639,6.54545455 157.126266,6.81818182 157.126266,6.81818182 C158.122455,7.09090909 158.484706,7.27272727 159.29977,7.81818182 C163.012841,9.90909091 165.367471,13.1818182 165.367471,18.9090909 C165.458033,23.8181818 163.918467,27.5454545 160.477085,29.5454545 C158.846957,30.4545455 157.397954,31 154.952761,31.0909091 L154.952761,31.0909091 Z" id="Fill-11" fill="#222A3B" sketch:type="MSShapeGroup" mask="url(#mask-2)"></path>
                    </g>
                    <path d="M163.465654,49.5454545 L164.099593,49.5454545 L164.190156,43 L166.454223,43 L166.454223,42.3636364 L161.201587,42.3636364 L161.201587,43 L163.465654,43 L163.465654,49.5454545 Z M150.605752,49.5454545 L151.239691,49.5454545 L151.239691,43.3636364 L155.133887,49.5454545 L155.948951,49.5454545 L155.948951,42.3636364 L155.315012,42.3636364 L155.315012,48.6363636 L155.224449,48.6363636 L151.330254,42.3636364 L150.605752,42.3636364 L150.605752,49.5454545 L150.605752,49.5454545 Z M144.80974,49.5454545 L144.80974,49 L141.09667,49 L141.09667,46.1818182 L144.538052,46.1818182 L144.538052,45.6363636 L141.09667,45.6363636 L141.09667,43 L144.719177,43 L144.719177,42.3636364 L140.462731,42.3636364 L140.462731,49.5454545 L144.80974,49.5454545 L144.80974,49.5454545 Z M127.512266,49.5454545 L127.512266,43 L130.229147,49.5454545 L130.863086,49.5454545 L133.579967,42.9090909 L133.579967,49.5454545 L134.213905,49.5454545 L134.213905,42.3636364 L133.217716,42.3636364 L130.410272,48.6363636 L127.783954,42.3636364 L126.787765,42.3636364 L126.787765,49.5454545 L127.512266,49.5454545 Z M120.991753,49.5454545 L120.991753,49 L117.278683,49 L117.278683,46.1818182 L120.810627,46.1818182 L120.810627,45.6363636 L117.278683,45.6363636 L117.278683,43 L120.90119,43 L120.90119,42.3636364 L116.644744,42.3636364 L116.644744,49.5454545 L120.991753,49.5454545 L120.991753,49.5454545 Z M108.131851,45.9090909 L108.131851,46.5454545 L109.852542,46.5454545 L109.852542,48.8181818 C109.399729,49 108.856352,49.0909091 108.312976,49.0909091 C106.41116,49.0909091 105.686658,47.8181818 105.686658,45.9090909 C105.686658,44.4545455 106.320597,42.8181818 108.041288,42.8181818 C108.856352,42.8181818 109.671417,43.2727273 109.761979,44.1818182 L110.486481,44.1818182 C110.395918,42.9090909 109.128041,42.2727273 108.041288,42.2727273 C105.958346,42.2727273 104.962157,44.1818182 104.962157,46 C104.962157,48.2727273 106.048909,49.7272727 108.041288,49.7272727 C108.946915,49.7272727 109.761979,49.6363636 110.577044,49.2727273 L110.577044,45.9090909 L108.131851,45.9090909 L108.131851,45.9090909 Z M94.8191356,49.5454545 L95.5436371,47.6363636 L99.075582,47.6363636 L99.8000835,49.5454545 L100.524585,49.5454545 L97.7171417,42.3636364 L96.9926402,42.3636364 L94.1851968,49.5454545 L94.8191356,49.5454545 Z M95.7247625,47.0909091 L97.2643282,43 L98.8038939,47.0909091 L95.7247625,47.0909091 Z M83.5893621,49.5454545 L84.223301,49.5454545 L84.223301,43.3636364 L88.1174966,49.5454545 L88.9325608,49.5454545 L88.9325608,42.3636364 L88.298622,42.3636364 L88.298622,48.6363636 L88.2080593,48.6363636 L84.3138637,42.3636364 L83.5893621,42.3636364 L83.5893621,49.5454545 Z M72.6312768,49.5454545 L73.446341,47.6363636 L76.9782858,47.6363636 L77.79335,49.5454545 L78.4272889,49.5454545 L75.6198455,42.3636364 L74.895344,42.3636364 L72.0879006,49.5454545 L72.6312768,49.5454545 Z M73.5369036,47.0909091 L75.0764694,43 L76.6160351,47.0909091 L73.5369036,47.0909091 Z M59.9525003,49.5454545 L59.9525003,43 L62.6693809,49.5454545 L63.3033198,49.5454545 L66.0202004,42.9090909 L66.0202004,49.5454545 L66.6541393,49.5454545 L66.6541393,42.3636364 L65.6579497,42.3636364 L62.8505063,48.6363636 L60.2241883,42.3636364 L59.2279987,42.3636364 L59.2279987,49.5454545 L59.9525003,49.5454545 Z M44.1040296,49.5454545 L44.7379685,49.5454545 L44.7379685,43 L47.0020357,43 L47.0020357,42.3636364 L41.8399624,42.3636364 L41.8399624,43 L44.1040296,43 L44.1040296,49.5454545 Z M36.9495772,49.5454545 L36.9495772,49 L33.2365069,49 L33.2365069,46.1818182 L36.7684518,46.1818182 L36.7684518,45.6363636 L33.2365069,45.6363636 L33.2365069,43 L36.8590145,43 L36.8590145,42.3636364 L32.6025681,42.3636364 L32.6025681,49.5454545 L36.9495772,49.5454545 L36.9495772,49.5454545 Z M26.806556,47.6363636 C26.806556,45.1818182 22.8217977,46.0909091 22.8217977,44.0909091 C22.8217977,43.2727273 23.7274246,42.9090909 24.4519261,42.9090909 C25.1764276,42.9090909 25.9914918,43.1818182 25.9914918,44 L26.6254306,44 C26.5348679,42.6363636 25.2669903,42.2727273 24.3613634,42.2727273 C23.1840484,42.2727273 22.0972962,42.9090909 22.0972962,44.1818182 C22.0972962,45.7272727 23.8179873,46.0909091 24.9953022,46.4545455 C25.629241,46.6363636 26.1726172,47 26.1726172,47.6363636 C26.1726172,48.5454545 25.2669903,49 24.4519261,49 C23.5462992,49 22.731235,48.7272727 22.731235,47.6363636 L22.0067335,47.6363636 C22.0972962,48.8181818 23.0029231,49.6363636 24.180238,49.6363636 C25.4481157,49.7272727 26.806556,49.2727273 26.806556,47.6363636 L26.806556,47.6363636 Z M16.4824094,47.6363636 C16.4824094,45.1818182 12.4070884,46.0909091 12.4070884,44.0909091 C12.4070884,43.2727273 13.403278,42.9090909 14.1277795,42.9090909 C14.852281,42.9090909 15.6673452,43.1818182 15.6673452,44 L16.3012841,44 C16.1201587,42.6363636 14.9428437,42.2727273 14.0372168,42.2727273 C12.8599019,42.2727273 11.7731496,42.9090909 11.7731496,44.1818182 C11.7731496,45.7272727 13.4938407,46.0909091 14.6711557,46.4545455 C15.3050945,46.6363636 15.8484706,47 15.8484706,47.6363636 C15.8484706,48.5454545 14.9428437,49 14.1277795,49 C13.1315899,49 12.4070884,48.7272727 12.4070884,47.6363636 L11.6825869,47.6363636 C11.7731496,48.8181818 12.6787765,49.6363636 13.7655288,49.6363636 C15.2145318,49.7272727 16.4824094,49.2727273 16.4824094,47.6363636 L16.4824094,47.6363636 Z M1.26787765,49.5454545 L1.99237916,47.6363636 L5.52432404,47.6363636 L6.33938825,49.5454545 L6.97332707,49.5454545 L4.1658837,42.3636364 L3.44138219,42.3636364 L0.633938825,49.5454545 L1.26787765,49.5454545 Z M2.26406723,47.0909091 L3.80363295,43 L5.34319866,47.0909091 L2.26406723,47.0909091 Z" id="Fill-14" fill="#807F83" sketch:type="MSShapeGroup"></path>
                </g>
            </g>
        </g>
    </g>
</svg>